# xmcd CD database file
#
# Track frame offsets:
#	150
#	19800
#	44850
#	62325
#	82050
#	102675
#	119250
#	141450
#	156375
#	169275
#	188175
#	203250
#	221475
#	242100
#
# Disc length: 3453 seconds
#
# Revision: 1
# Processed by: cddbd v1.5.1PL0 Copyright (c) Steve Scherf et al.
# Submitted via: freeDBTagger 0.8.1.0
#
DISCID=d20d7b0e
DTITLE=Liz Phair - Somebody's Miracle
DYEAR=2005
DGENRE=misc
TTITLE0=01 - Leap Of Innocence
TTITLE1=01 - Leap Of Innocence
TTITLE2=01 - Leap Of Innocence
TTITLE3=01 - Leap Of Innocence
TTITLE4=01 - Leap Of Innocence
TTITLE5=01 - Leap Of Innocence
TTITLE6=01 - Leap Of Innocence
TTITLE7=01 - Leap Of Innocence
TTITLE8=01 - Leap Of Innocence
TTITLE9=01 - Leap Of Innocence
TTITLE10=01 - Leap Of Innocence
TTITLE11=01 - Leap Of Innocence
TTITLE12=01 - Leap Of Innocence
TTITLE13=01 - Leap Of Innocence
EXTD=
EXTT0=
EXTT1=
EXTT2=
EXTT3=
EXTT4=
EXTT5=
EXTT6=
EXTT7=
EXTT8=
EXTT9=
EXTT10=
EXTT11=
EXTT12=
EXTT13=
PLAYORDER=
